<svg width="80" height="80" fill="none" xmlns="http://www.w3.org/2000/svg"><path d="M40 0C17.894 0 0 17.89 0 40c0 22.106 17.89 40 40 40 7.767 0 15.378-2.28 21.84-6.488 1.936-1.26 2.359-3.917.895-5.705l-1.641-2.005c-1.237-1.512-3.416-1.882-5.06-.827A29.758 29.758 0 0140 69.677c-16.364 0-29.677-13.313-29.677-29.677 0-16.364 13.313-29.677 29.677-29.677 16.151 0 29.677 9.293 29.677 25.806 0 6.256-3.402 12.862-9.382 13.499-2.798-.073-2.727-2.074-2.173-4.843l3.78-19.533a3.87 3.87 0 00-3.801-4.607h-7.255a2.18 2.18 0 00-2.167 1.934l-.001.015c-2.37-2.887-6.524-2.867-9.673-2.867-9.61 0-19.812 11.812-19.812 23.784 0 8.114 5.934 14.818 13.065 14.818 4.352 0 9.253-.264 12.095-3.925 1.536 5.501 7.357 5.5 11.405 5.5C73.324 59.905 80 48.355 80 36.13 80 14.138 62.262 0 40 0zm-3.497 48.295c-3.588 0-5.817-2.52-5.817-6.576 0-7.257 4.964-11.73 9.456-11.73 3.595 0 5.742 2.458 5.742 6.576 0 7.267-5.464 11.73-9.38 11.73z" fill="#E7B916"/></svg>