<svg width="75" height="80" fill="none" xmlns="http://www.w3.org/2000/svg"><path d="M66.542 7.79C64.581 5.962 56.642.135 38.94.057c0 0-20.867-1.266-31.03 8.17C2.257 13.945.264 22.335.048 32.724-.168 43.114-.431 62.58 18.12 67.861h.015l-.016 8.061s-.123 3.265 2.009 3.922c2.564.812 4.077-1.672 6.533-4.344 1.344-1.468 3.197-3.624 4.603-5.265 12.696 1.078 22.443-1.39 23.555-1.75 2.564-.843 17.067-2.718 19.415-22.184 2.44-20.091-1.174-32.777-7.692-38.511zm2.147 37.042C66.697 61.08 54.942 62.112 52.78 62.814c-.927.297-9.5 2.453-20.265 1.75 0 0-8.032 9.796-10.534 12.342-.819.828-1.715.75-1.699-.89 0-1.078.062-13.39.062-13.39-.016 0-.016 0 0 0C4.62 58.222 5.547 41.647 5.717 32.975c.17-8.67 1.791-15.779 6.58-20.56 8.603-7.89 26.32-6.717 26.32-6.717 14.966.062 22.133 4.624 23.801 6.155 5.514 4.78 8.325 16.217 6.271 32.98zM47.22 32.21c.062 1.343-1.93 1.437-1.992.094-.17-3.437-1.76-5.11-5.035-5.297-1.329-.078-1.205-2.093.108-2.015 4.31.234 6.703 2.734 6.92 7.218zm3.136 1.765c.154-6.624-3.939-11.81-11.708-12.389-1.313-.094-1.174-2.109.139-2.015 8.959.656 13.731 6.89 13.561 14.451-.015 1.344-2.023 1.281-1.992-.047zm7.26 2.094c.015 1.343-1.993 1.359-1.993.015-.093-12.732-8.48-19.67-18.659-19.747-1.312-.016-1.312-2.016 0-2.016 11.384.079 20.543 8.03 20.651 21.748zM55.87 51.395v.031c-1.668 2.969-4.788 6.25-8 5.203l-.032-.047c-3.259-.922-10.935-4.922-15.785-8.827a40.62 40.62 0 01-6.55-6.624c-1.59-2.016-3.197-4.406-4.757-7.28-3.29-6.016-4.016-8.703-4.016-8.703-1.034-3.25 2.194-6.405 5.144-8.092h.03c1.422-.75 2.781-.5 3.692.609 0 0 1.916 2.312 2.734 3.452.773 1.063 1.807 2.766 2.348 3.719.942 1.703.355 3.437-.572 4.155l-1.853 1.5c-.942.766-.819 2.188-.819 2.188s2.75 10.514 13.021 13.17c0 0 1.406.125 2.163-.828l1.482-1.875c.71-.937 2.425-1.531 4.109-.578 2.27 1.297 5.159 3.312 7.074 5.14 1.081.89 1.329 2.25.587 3.687z" fill="#E7B916"/></svg>