<svg width="80" height="80" fill="none" xmlns="http://www.w3.org/2000/svg"><path d="M40.009 19.489c-11.35 0-20.506 9.158-20.506 20.511s9.155 20.511 20.506 20.511c11.35 0 20.506-9.158 20.506-20.511S51.36 19.489 40.01 19.489zm0 33.846c-7.335 0-13.332-5.98-13.332-13.335s5.979-13.335 13.332-13.335c7.353 0 13.332 5.98 13.332 13.335s-5.997 13.335-13.332 13.335zM66.137 18.65a4.772 4.772 0 01-4.783 4.784 4.772 4.772 0 01-4.783-4.784 4.784 4.784 0 119.566 0zm13.582 4.856c-.303-6.409-1.767-12.086-6.46-16.763C68.581 2.066 62.906.603 56.498.281c-6.603-.375-26.395-.375-32.999 0C17.11.585 11.435 2.048 6.741 6.725 2.048 11.402.602 17.08.282 23.488c-.376 6.605-.376 26.401 0 33.007.302 6.408 1.766 12.085 6.46 16.762s10.351 6.14 16.758 6.462c6.604.375 26.396.375 33 0 6.407-.304 12.082-1.767 16.758-6.462 4.676-4.677 6.14-10.354 6.46-16.763.376-6.605.376-26.384 0-32.989zM71.188 63.58c-1.392 3.5-4.087 6.195-7.603 7.605-5.265 2.089-17.758 1.607-23.576 1.607-5.818 0-18.33.464-23.576-1.607-3.498-1.392-6.193-4.088-7.603-7.605C6.742 58.315 7.224 45.82 7.224 40c0-5.82-.464-18.333 1.606-23.581 1.392-3.5 4.087-6.195 7.603-7.605 5.265-2.089 17.758-1.607 23.576-1.607 5.818 0 18.329-.464 23.576 1.607 3.498 1.392 6.193 4.088 7.603 7.605C73.276 21.685 72.794 34.18 72.794 40s.482 18.333-1.606 23.581z" fill="#E7B916"/></svg>