<svg width="80" height="80" fill="none" xmlns="http://www.w3.org/2000/svg"><path d="M68.018 11.625C60.536 4.125 50.57 0 39.982 0 18.125 0 .34 17.786.34 39.643a39.686 39.686 0 005.286 19.821L0 80l21.018-5.518a39.521 39.521 0 0018.946 4.822h.018C61.822 79.304 80 61.518 80 39.66c0-10.59-4.5-20.536-11.982-28.036zm-28.036 61a32.892 32.892 0 01-16.786-4.59L22 67.322 9.536 70.59l3.321-12.16-.786-1.25c-3.303-5.25-5.035-11.304-5.035-17.536C7.036 21.483 21.82 6.696 40 6.696c8.804 0 17.071 3.429 23.286 9.661 6.214 6.232 10.035 14.5 10.018 23.304 0 18.178-15.161 32.964-33.322 32.964zm18.072-24.679c-.983-.5-5.858-2.892-6.768-3.214-.911-.34-1.572-.5-2.232.5-.661 1-2.554 3.214-3.143 3.893-.572.66-1.161.75-2.143.25-5.822-2.91-9.643-5.196-13.482-11.786-1.018-1.75 1.018-1.625 2.91-5.41.322-.661.161-1.233-.089-1.733s-2.232-5.375-3.053-7.357c-.804-1.928-1.625-1.66-2.233-1.696-.571-.036-1.232-.036-1.892-.036-.661 0-1.733.25-2.643 1.232-.911 1-3.465 3.393-3.465 8.268 0 4.875 3.554 9.59 4.036 10.25.5.66 6.982 10.66 16.929 14.964 6.285 2.715 8.75 2.947 11.893 2.483 1.91-.286 5.857-2.393 6.678-4.715.822-2.321.822-4.303.572-4.714-.233-.446-.893-.696-1.875-1.179z" fill="#E7B916"/></svg>